<?xml version="1.0" encoding="UTF-8" standalone="no"?>
<svg
   xmlns:dc="http://purl.org/dc/elements/1.1/"
   xmlns:cc="http://creativecommons.org/ns#"
   xmlns:rdf="http://www.w3.org/1999/02/22-rdf-syntax-ns#"
   xmlns:svg="http://www.w3.org/2000/svg"
   xmlns="http://www.w3.org/2000/svg"
   xmlns:sodipodi="http://sodipodi.sourceforge.net/DTD/sodipodi-0.dtd"
   xmlns:inkscape="http://www.inkscape.org/namespaces/inkscape"
   sodipodi:docname="experience.svg"
   inkscape:version="1.0 (6e3e5246a0, 2020-05-07)"
   id="svg1837"
   version="1.1"
   viewBox="0 0 210 19"
   height="19mm"
   width="210mm">
  <defs
     id="defs1831" />
  <sodipodi:namedview
     inkscape:object-nodes="false"
     inkscape:window-maximized="1"
     inkscape:window-y="0"
     inkscape:window-x="0"
     inkscape:window-height="1044"
     inkscape:window-width="1920"
     showgrid="false"
     inkscape:document-rotation="0"
     inkscape:current-layer="g3359"
     inkscape:document-units="mm"
     inkscape:cy="51.392509"
     inkscape:cx="796.06776"
     inkscape:zoom="3.959798"
     inkscape:pageshadow="2"
     inkscape:pageopacity="0.0"
     borderopacity="1.0"
     bordercolor="#666666"
     pagecolor="#ffffff"
     id="base" />
  <metadata
     id="metadata1834">
    <rdf:RDF>
      <cc:Work
         rdf:about="">
        <dc:format>image/svg+xml</dc:format>
        <dc:type
           rdf:resource="http://purl.org/dc/dcmitype/StillImage" />
        <dc:title></dc:title>
      </cc:Work>
    </rdf:RDF>
  </metadata>
  <g
     id="layer1"
     inkscape:groupmode="layer"
     inkscape:label="Layer 1">
    <g
       transform="matrix(1.697873,0,0,1.697873,1.1627128,-247.93071)"
       id="g3359">
      <text
         y="153.34103"
         x="13.496606"
         style="font-variant:normal;font-weight:bold;font-size:4.9389px;font-family:'Open Sans';-inkscape-font-specification:OpenSans-Bold;writing-mode:lr-tb;fill:#000000;fill-opacity:1;fill-rule:nonzero;stroke:none;stroke-width:0.352777"
         id="text38424"><tspan
           x="13.496606 16.262383 19.117058 22.238441 25.152397 27.39464 28.901007 31.829758 35.074608 37.613205"
           y="153.34103"
           sodipodi:role="line"
           id="tspan38422"
           style="stroke-width:0.352777">Experience</tspan></text>
      <g
         transform="matrix(0.35277777,0,0,-0.35277777,-81.083551,416.09772)"
         id="g2148">
        <g
           transform="matrix(1,0,0,-1,9.905793,978.38977)"
           id="g38430">
          <path
             inkscape:connector-curvature="0"
             id="path38432"
             style="fill:none;stroke:#000000;stroke-width:1.27425;stroke-linecap:butt;stroke-linejoin:round;stroke-miterlimit:4;stroke-dasharray:none;stroke-opacity:1"
             d="m 229.418,217.574 -1.098,1.703 1.489,4.438 4.082,-4.363 4.187,4.363 1.492,-4.363 -1.066,-1.813 c 0,0 -4.543,1.918 -9.086,0.035 z" />
        </g>
        <g
           transform="matrix(1,0,0,-1,9.905793,978.38977)"
           id="g38434">
          <path
             inkscape:connector-curvature="0"
             id="path38436"
             style="fill:none;stroke:#000000;stroke-width:1.27425;stroke-linecap:butt;stroke-linejoin:round;stroke-miterlimit:4;stroke-dasharray:none;stroke-opacity:1"
             d="m 231.664,221.727 2.227,-2.375 2.246,2.375 -1.024,2.015 h -2.484 z" />
        </g>
        <g
           transform="matrix(1,0,0,-1,9.905793,978.38977)"
           id="g38438">
          <path
             inkscape:connector-curvature="0"
             id="path38440"
             style="fill:none;stroke:#000000;stroke-width:1.27425;stroke-linecap:butt;stroke-linejoin:round;stroke-miterlimit:4;stroke-dasharray:none;stroke-opacity:1"
             d="m 232.629,223.742 -2.164,12.731 3.398,3.074 3.426,-3.211 -2.176,-12.594 z" />
        </g>
        <g
           transform="matrix(1,0,0,-1,9.905793,978.38977)"
           id="g38442">
          <path
             inkscape:connector-curvature="0"
             id="path38444"
             style="fill:none;stroke:#000000;stroke-width:1.47333;stroke-linecap:round;stroke-linejoin:round;stroke-miterlimit:4;stroke-dasharray:none;stroke-opacity:1"
             d="m 248.48,228.543 c 0,8.027 -6.507,14.539 -14.535,14.539 -8.031,0 -14.539,-6.512 -14.539,-14.539 0,-8.027 6.508,-14.539 14.539,-14.539 8.028,0 14.535,6.512 14.535,14.539 z" />
        </g>
      </g>
      <g
         id="g38426"
         transform="matrix(0.35531866,0,0,0.3527625,-82.682076,70.94728)">
        <path
           sodipodi:nodetypes="cc"
           d="m 247.035,243.074 331.828,-0.051"
           style="fill:none;stroke:#000000;stroke-width:1.41732;stroke-linecap:butt;stroke-linejoin:miter;stroke-miterlimit:4;stroke-dasharray:none;stroke-opacity:1"
           id="path38428"
           inkscape:connector-curvature="0" />
      </g>
    </g>
  </g>
</svg>
