<?xml version="1.0" encoding="UTF-8" standalone="no"?>
<svg
   xmlns:dc="http://purl.org/dc/elements/1.1/"
   xmlns:cc="http://creativecommons.org/ns#"
   xmlns:rdf="http://www.w3.org/1999/02/22-rdf-syntax-ns#"
   xmlns:svg="http://www.w3.org/2000/svg"
   xmlns="http://www.w3.org/2000/svg"
   xmlns:sodipodi="http://sodipodi.sourceforge.net/DTD/sodipodi-0.dtd"
   xmlns:inkscape="http://www.inkscape.org/namespaces/inkscape"
   sodipodi:docname="skills.svg"
   inkscape:version="1.0 (6e3e5246a0, 2020-05-07)"
   id="svg1837"
   version="1.1"
   viewBox="0 0 210 19"
   height="19mm"
   width="210mm">
  <defs
     id="defs1831" />
  <sodipodi:namedview
     inkscape:window-maximized="0"
     inkscape:window-y="0"
     inkscape:window-x="-55"
     inkscape:window-height="1044"
     inkscape:window-width="1428"
     showgrid="false"
     inkscape:document-rotation="0"
     inkscape:current-layer="layer1"
     inkscape:document-units="mm"
     inkscape:cy="308.01655"
     inkscape:cx="419.55277"
     inkscape:zoom="0.7"
     inkscape:pageshadow="2"
     inkscape:pageopacity="0.0"
     borderopacity="1.0"
     bordercolor="#666666"
     pagecolor="#ffffff"
     id="base" />
  <metadata
     id="metadata1834">
    <rdf:RDF>
      <cc:Work
         rdf:about="">
        <dc:format>image/svg+xml</dc:format>
        <dc:type
           rdf:resource="http://purl.org/dc/dcmitype/StillImage" />
        <dc:title></dc:title>
      </cc:Work>
    </rdf:RDF>
  </metadata>
  <g
     id="layer1"
     inkscape:groupmode="layer"
     inkscape:label="Layer 1">
    <g
       style="stroke-width:1"
       transform="matrix(1.7123545,0,0,1.7123545,-67.526787,-195.10131)"
       id="g3257">
      <text
         id="text5551"
         style="font-variant:normal;font-weight:bold;font-size:4.9389px;font-family:'Open Sans';-inkscape-font-specification:OpenSans-Bold;writing-mode:lr-tb;fill:#000000;fill-opacity:1;fill-rule:nonzero;stroke:none;stroke-width:0.352778"
         x="53.442318"
         y="121.1444"><tspan
           style="stroke-width:0.352778"
           id="tspan5549"
           sodipodi:role="line"
           x="53.442318"
           y="121.1444">Skills</tspan></text>
      <g
         id="g5569"
         transform="matrix(0.35277777,0,0,-0.35277777,-41.137839,383.90105)"
         style="stroke:#000000;stroke-width:1.28409;stroke-miterlimit:4;stroke-dasharray:none;stroke-opacity:1">
        <g
           id="g5567"
           transform="matrix(1,0,0,-1,9.905793,978.38977)"
           style="stroke:#000000;stroke-width:1.28409;stroke-miterlimit:4;stroke-dasharray:none;stroke-opacity:1">
          <path
             d="m 248.48,228.543 c 0,8.027 -6.507,14.539 -14.535,14.539 -8.031,0 -14.539,-6.512 -14.539,-14.539 0,-8.027 6.508,-14.539 14.539,-14.539 8.028,0 14.535,6.512 14.535,14.539 z"
             style="fill:none;stroke:#000000;stroke-width:1.28409;stroke-linecap:round;stroke-linejoin:round;stroke-miterlimit:4;stroke-dasharray:none;stroke-opacity:1"
             id="path5565"
             inkscape:connector-curvature="0" />
        </g>
      </g>
      <g
         transform="matrix(0.35277777,0,0,0.35277777,-42.108664,38.746922)"
         id="g5573"
         style="stroke:#000000;stroke-width:1.28409;stroke-miterlimit:4;stroke-dasharray:none;stroke-opacity:1">
        <path
           inkscape:connector-curvature="0"
           id="path5571"
           style="fill:none;stroke:#000000;stroke-width:1.28409;stroke-linecap:butt;stroke-linejoin:miter;stroke-miterlimit:4;stroke-dasharray:none;stroke-opacity:1"
           d="m 247.035,243.074 331.828,-0.051"
           sodipodi:nodetypes="cc" />
      </g>
      <g
         id="g7253"
         transform="matrix(0.93331829,0,0,0.93331829,-21.558643,71.09411)"
         style="stroke-width:0.485366;stroke-miterlimit:4;stroke-dasharray:none">
        <circle
           transform="rotate(-0.12748096)"
           r="1.3290511"
           cy="51.862785"
           cx="71.090073"
           id="path1410-9-2-0"
           style="opacity:1;fill:none;fill-opacity:1;fill-rule:nonzero;stroke:#000000;stroke-width:0.485366;stroke-linecap:round;stroke-linejoin:round;stroke-miterlimit:4;stroke-dasharray:none;stroke-dashoffset:0;stroke-opacity:1;paint-order:markers fill stroke" />
        <path
           id="circle1412-1-7-9-blue"
           d="m 70.893381,47.986794 c -0.427671,9.38e-4 -0.441528,0.315087 -0.441528,0.315087 l -0.05194,0.500918 a 3.0116825,3.0116825 0 0 0 -0.71728,0.309041 l -0.405634,-0.326422 c 0,0 -0.232836,-0.211352 -0.534626,0.09176 l -0.152733,0.153401 -0.135708,0.136377 -0.143259,0.143805 c -0.301721,0.303094 -0.08931,0.535016 -0.08931,0.535016 l 0.341605,0.420725 a 3.0116825,3.0116825 0 0 0 -0.26716,0.674837 l -0.530745,0.0575 c 0,0 -0.314088,0.01519 -0.313131,0.44287 l 4.69e-4,0.216495 3.75e-4,0.192393 4.69e-4,0.202964 c 9.38e-4,0.427695 0.315118,0.441503 0.315118,0.441503 l 0.550627,0.05713 a 3.0116825,3.0116825 0 0 0 0.270231,0.639375 l -0.35185,0.437267 c 0,0 -0.211339,0.232851 0.09174,0.53457 l 0.143835,0.143252 0.136326,0.135704 0.153483,0.152745 c 0.303095,0.301761 0.53494,0.08939 0.53494,0.08939 l 0.438771,-0.356254 a 3.0116825,3.0116825 0 0 0 0.643661,0.271408 l 0.06015,0.555483 c 0,0 0.01519,0.314043 0.442908,0.313116 l 0.216451,-4.69e-4 0.192403,-3.13e-4 0.202954,-4.69e-4 c 0.4277,-9.38e-4 0.441559,-0.315051 0.441559,-0.315051 l 0.05653,-0.545111 a 3.0116825,3.0116825 0 0 0 0.695333,-0.283063 l 0.419831,0.337887 c 0,0 0.232869,0.211325 0.534626,-0.09176 l 0.152751,-0.153395 0.135692,-0.136393 0.143258,-0.143806 c 0.301723,-0.303089 0.08935,-0.535019 0.08935,-0.535019 l -0.339376,-0.417942 a 3.0116825,3.0116825 0 0 0 0.283718,-0.677327 l 0.511597,-0.0554 c 0,0 0.314113,-0.01519 0.313155,-0.442887 l -4.69e-4,-0.216521 -3.76e-4,-0.192351 -4.69e-4,-0.202976 c -9.38e-4,-0.427683 -0.315122,-0.441516 -0.315122,-0.441516 l -0.513791,-0.05332 a 3.0116825,3.0116825 0 0 0 -0.27465,-0.670731 l 0.322582,-0.400928 c 0,0 0.21135,-0.232838 -0.09175,-0.534603 l -0.143805,-0.143235 -0.136359,-0.1357 -0.15343,-0.152742 c -0.303073,-0.301757 -0.53496,-0.08937 -0.53496,-0.08937 l -0.39534,0.32101 a 3.0116825,3.0116825 0 0 0 -0.69229,-0.291083 l -0.05464,-0.504963 c 0,0 -0.0152,-0.314092 -0.442914,-0.313159 l -0.202957,4.7e-4 -0.192337,3.12e-4 z"
           style="opacity:1;fill:none;fill-opacity:1;fill-rule:nonzero;stroke:#000000;stroke-width:0.485366;stroke-linecap:round;stroke-linejoin:round;stroke-miterlimit:4;stroke-dasharray:none;stroke-dashoffset:0;stroke-opacity:1;paint-order:markers fill stroke"
           inkscape:connector-curvature="0"
           inkscape:label="#circle1412-1-7-9" />
      </g>
    </g>
  </g>
</svg>
