<?xml version="1.0" encoding="UTF-8" standalone="no"?>
<svg
   xmlns:dc="http://purl.org/dc/elements/1.1/"
   xmlns:cc="http://creativecommons.org/ns#"
   xmlns:rdf="http://www.w3.org/1999/02/22-rdf-syntax-ns#"
   xmlns:svg="http://www.w3.org/2000/svg"
   xmlns="http://www.w3.org/2000/svg"
   xmlns:sodipodi="http://sodipodi.sourceforge.net/DTD/sodipodi-0.dtd"
   xmlns:inkscape="http://www.inkscape.org/namespaces/inkscape"
   sodipodi:docname="technical_interests.svg"
   inkscape:version="1.0 (6e3e5246a0, 2020-05-07)"
   id="svg1837"
   version="1.1"
   viewBox="0 0 210 19"
   height="19mm"
   width="210mm">
  <defs
     id="defs1831" />
  <sodipodi:namedview
     inkscape:object-nodes="false"
     inkscape:window-maximized="1"
     inkscape:window-y="0"
     inkscape:window-x="0"
     inkscape:window-height="1044"
     inkscape:window-width="1920"
     showgrid="false"
     inkscape:document-rotation="0"
     inkscape:current-layer="g3623"
     inkscape:document-units="mm"
     inkscape:cy="54.053616"
     inkscape:cx="723.23536"
     inkscape:zoom="7.9195959"
     inkscape:pageshadow="2"
     inkscape:pageopacity="0.0"
     borderopacity="1.0"
     bordercolor="#666666"
     pagecolor="#ffffff"
     id="base" />
  <metadata
     id="metadata1834">
    <rdf:RDF>
      <cc:Work
         rdf:about="">
        <dc:format>image/svg+xml</dc:format>
        <dc:type
           rdf:resource="http://purl.org/dc/dcmitype/StillImage" />
        <dc:title></dc:title>
      </cc:Work>
    </rdf:RDF>
  </metadata>
  <g
     id="layer1"
     inkscape:groupmode="layer"
     inkscape:label="Layer 1">
    <g
       transform="matrix(1.697873,0,0,1.697873,1.1627128,-247.93071)"
       id="g3359">
      <g
         transform="matrix(1.7021891,0,0,1.7021891,-22.566303,-164.65861)"
         id="g3443">
        <g
           transform="matrix(1.6896152,0,0,1.6896152,12.08981,-164.19149)"
           id="g3623">
          <text
             y="207.75734"
             x="5.3724184"
             style="font-variant:normal;font-weight:bold;font-size:1.7089px;font-family:'Open Sans';-inkscape-font-specification:OpenSans-Bold;writing-mode:lr-tb;fill:#000000;fill-opacity:1;fill-rule:nonzero;stroke:none;stroke-width:0.122064"
             id="text38542"><tspan
               x="5.3724184 6.3618708 7.3701143 8.248498 9.3712378 10.499118 11.020333 11.898709 12.930879 13.452088 13.894702 14.460351 15.583087 16.324755 17.33301 18.108852 19.122229 19.971546 20.713215"
               y="207.75734"
               sodipodi:role="line"
               id="tspan38540"
               style="stroke-width:0.122064">Technical Interests</tspan></text>
          <g
             id="g38544"
             transform="matrix(0.12355058,0,0,0.12205525,-28.056254,140.61876)">
            <path
               sodipodi:nodetypes="cc"
               d="m 247.035,559.574 331.828,-0.051"
               style="fill:none;stroke:#000000;stroke-width:1.41732;stroke-linecap:butt;stroke-linejoin:miter;stroke-miterlimit:4;stroke-dasharray:none;stroke-opacity:1"
               id="path38546"
               inkscape:connector-curvature="0" />
          </g>
          <g
             transform="matrix(0.12206417,0,0,-0.12206417,-27.352192,233.30805)"
             id="g2192">
            <g
               transform="matrix(1,0,0,-1,9.905793,759.38977)"
               id="g38664">
              <path
                 inkscape:connector-curvature="0"
                 id="path38666"
                 style="fill:none;stroke:#000000;stroke-width:1.48967;stroke-linecap:round;stroke-linejoin:round;stroke-miterlimit:4;stroke-dasharray:none;stroke-opacity:1"
                 d="m 248.383,544.828 c 0,8.121 -6.582,14.699 -14.699,14.699 -8.118,0 -14.7,-6.578 -14.7,-14.699 0,-8.117 6.582,-14.695 14.7,-14.695 8.117,0 14.699,6.578 14.699,14.695 z" />
            </g>
            <g
               transform="matrix(1,0,0,-1,9.905793,759.38977)"
               id="g38668">
              <path
                 inkscape:connector-curvature="0"
                 id="path38670"
                 style="fill:none;stroke:#000000;stroke-width:1.28837;stroke-linecap:butt;stroke-linejoin:miter;stroke-miterlimit:4;stroke-dasharray:none;stroke-opacity:1"
                 d="m 233.711,540.184 v 9.269" />
            </g>
            <g
               transform="matrix(1,0,0,-1,9.905793,759.38977)"
               id="g38672">
              <path
                 inkscape:connector-curvature="0"
                 id="path38674"
                 style="fill:none;stroke:#000000;stroke-width:1.28837;stroke-linecap:butt;stroke-linejoin:round;stroke-miterlimit:4;stroke-dasharray:none;stroke-opacity:1"
                 d="m 238.621,536.582 v 2.59 l -2.203,2.211 0.004,6.844 2.199,2.242 v 2.586" />
            </g>
            <g
               transform="matrix(1,0,0,-1,9.905793,759.38977)"
               id="g38676">
              <path
                 inkscape:connector-curvature="0"
                 id="path38678"
                 style="fill:none;stroke:#000000;stroke-width:1.28837;stroke-linecap:butt;stroke-linejoin:round;stroke-miterlimit:4;stroke-dasharray:none;stroke-opacity:1"
                 d="m 241.332,549.16 -2.09,-2.082 0.031,-4.547 2.09,-2.054" />
            </g>
            <g
               transform="matrix(1,0,0,-1,9.905793,759.38977)"
               id="g38680">
              <path
                 inkscape:connector-curvature="0"
                 id="path38682"
                 style="fill:none;stroke:#000000;stroke-width:1.28837;stroke-linecap:butt;stroke-linejoin:round;stroke-miterlimit:4;stroke-dasharray:none;stroke-opacity:1"
                 d="m 228.758,553.055 v -2.586 l 2.203,-2.211 -0.004,-6.848 -2.199,-2.238 v -2.59" />
            </g>
            <g
               transform="matrix(1,0,0,-1,9.905793,759.38977)"
               id="g38684">
              <path
                 inkscape:connector-curvature="0"
                 id="path38686"
                 style="fill:none;stroke:#000000;stroke-width:1.28837;stroke-linecap:butt;stroke-linejoin:round;stroke-miterlimit:4;stroke-dasharray:none;stroke-opacity:1"
                 d="m 226.035,549.16 2.121,-2.066 v -4.531 l -2.093,-2.086" />
            </g>
            <g
               transform="matrix(1,0,0,-1,9.905793,759.38977)"
               id="g38688">
              <path
                 inkscape:connector-curvature="0"
                 id="path38690"
                 style="fill:none;stroke:#000000;stroke-width:1.28837;stroke-linecap:square;stroke-linejoin:round;stroke-miterlimit:4;stroke-dasharray:none;stroke-opacity:1"
                 d="m 243.699,539.559 c 0,0.793 -0.644,1.437 -1.441,1.437 -0.797,0 -1.442,-0.644 -1.442,-1.437 0,-0.797 0.645,-1.442 1.442,-1.442 0.797,0 1.441,0.645 1.441,1.442 z" />
            </g>
            <g
               transform="matrix(1,0,0,-1,9.905793,759.38977)"
               id="g38692">
              <path
                 inkscape:connector-curvature="0"
                 id="path38694"
                 style="fill:none;stroke:#000000;stroke-width:1.28837;stroke-linecap:square;stroke-linejoin:round;stroke-miterlimit:4;stroke-dasharray:none;stroke-opacity:1"
                 d="m 240.051,535.488 c 0,0.797 -0.645,1.442 -1.442,1.442 -0.797,0 -1.441,-0.645 -1.441,-1.442 0,-0.797 0.644,-1.441 1.441,-1.441 0.797,0 1.442,0.644 1.442,1.441 z" />
            </g>
            <g
               transform="matrix(1,0,0,-1,9.905793,759.38977)"
               id="g38696">
              <path
                 inkscape:connector-curvature="0"
                 id="path38698"
                 style="fill:none;stroke:#000000;stroke-width:1.28837;stroke-linecap:square;stroke-linejoin:round;stroke-miterlimit:4;stroke-dasharray:none;stroke-opacity:1"
                 d="m 243.656,550.035 c 0,0.797 -0.644,1.442 -1.441,1.442 -0.793,0 -1.442,-0.645 -1.442,-1.442 0,-0.797 0.649,-1.441 1.442,-1.441 0.797,0 1.441,0.644 1.441,1.441 z" />
            </g>
            <g
               transform="matrix(1,0,0,-1,9.905793,759.38977)"
               id="g38700">
              <path
                 inkscape:connector-curvature="0"
                 id="path38702"
                 style="fill:none;stroke:#000000;stroke-width:1.28837;stroke-linecap:square;stroke-linejoin:round;stroke-miterlimit:4;stroke-dasharray:none;stroke-opacity:1"
                 d="m 240.066,554.172 c 0,0.797 -0.644,1.441 -1.437,1.441 -0.797,0 -1.441,-0.644 -1.441,-1.441 0,-0.797 0.644,-1.442 1.441,-1.442 0.793,0 1.437,0.645 1.437,1.442 z" />
            </g>
            <g
               transform="matrix(-1,0,0,1,9.905793,759.38977)"
               id="g38704">
              <path
                 inkscape:connector-curvature="0"
                 id="path38706"
                 style="fill:none;stroke:#000000;stroke-width:1.28837;stroke-linecap:square;stroke-linejoin:round;stroke-miterlimit:4;stroke-dasharray:none;stroke-opacity:1"
                 d="m -223.672,-550.035 c 0,0.797 -0.644,1.441 -1.441,1.441 -0.793,0 -1.438,-0.644 -1.438,-1.441 0,-0.797 0.645,-1.442 1.438,-1.442 0.797,0 1.441,0.645 1.441,1.442 z" />
            </g>
            <g
               transform="matrix(-1,0,0,1,9.905793,759.38977)"
               id="g38708">
              <path
                 inkscape:connector-curvature="0"
                 id="path38710"
                 style="fill:none;stroke:#000000;stroke-width:1.28837;stroke-linecap:square;stroke-linejoin:round;stroke-miterlimit:4;stroke-dasharray:none;stroke-opacity:1"
                 d="m -227.277,-554.172 c 0,0.797 -0.645,1.442 -1.442,1.442 -0.797,0 -1.441,-0.645 -1.441,-1.442 0,-0.797 0.644,-1.441 1.441,-1.441 0.797,0 1.442,0.644 1.442,1.441 z" />
            </g>
            <g
               transform="matrix(-1,0,0,1,9.905793,759.38977)"
               id="g38712">
              <path
                 inkscape:connector-curvature="0"
                 id="path38714"
                 style="fill:none;stroke:#000000;stroke-width:1.28837;stroke-linecap:square;stroke-linejoin:round;stroke-miterlimit:4;stroke-dasharray:none;stroke-opacity:1"
                 d="m -223.758,-539.559 c 0,0.797 -0.644,1.442 -1.441,1.442 -0.797,0 -1.442,-0.645 -1.442,-1.442 0,-0.793 0.645,-1.437 1.442,-1.437 0.797,0 1.441,0.644 1.441,1.437 z" />
            </g>
            <g
               transform="matrix(-1,0,0,1,9.905793,759.38977)"
               id="g38716">
              <path
                 inkscape:connector-curvature="0"
                 id="path38718"
                 style="fill:none;stroke:#000000;stroke-width:1.28837;stroke-linecap:square;stroke-linejoin:round;stroke-miterlimit:4;stroke-dasharray:none;stroke-opacity:1"
                 d="m -227.285,-535.488 c 0,0.797 -0.645,1.441 -1.442,1.441 -0.796,0 -1.441,-0.644 -1.441,-1.441 0,-0.797 0.645,-1.442 1.441,-1.442 0.797,0 1.442,0.645 1.442,1.442 z" />
            </g>
            <g
               transform="matrix(1,0,0,-1,9.905793,759.38977)"
               id="g38720">
              <path
                 inkscape:connector-curvature="0"
                 id="path38722"
                 style="fill:none;stroke:#000000;stroke-width:1.28837;stroke-linecap:square;stroke-linejoin:round;stroke-miterlimit:4;stroke-dasharray:none;stroke-opacity:1"
                 d="m 235.129,539.137 c 0,0.797 -0.645,1.441 -1.438,1.441 -0.796,0 -1.441,-0.644 -1.441,-1.441 0,-0.793 0.645,-1.438 1.441,-1.438 0.793,0 1.438,0.645 1.438,1.438 z" />
            </g>
            <g
               transform="matrix(1,0,0,-1,9.905793,759.38977)"
               id="g38724">
              <path
                 inkscape:connector-curvature="0"
                 id="path38726"
                 style="fill:none;stroke:#000000;stroke-width:1.28837;stroke-linecap:square;stroke-linejoin:round;stroke-miterlimit:4;stroke-dasharray:none;stroke-opacity:1"
                 d="m 235.16,550.613 c 0,0.797 -0.644,1.442 -1.441,1.442 -0.793,0 -1.442,-0.645 -1.442,-1.442 0,-0.793 0.649,-1.441 1.442,-1.441 0.797,0 1.441,0.648 1.441,1.441 z" />
            </g>
          </g>
        </g>
      </g>
    </g>
  </g>
</svg>
