<?xml version="1.0" encoding="UTF-8" standalone="no"?>
<svg
   xmlns:dc="http://purl.org/dc/elements/1.1/"
   xmlns:cc="http://creativecommons.org/ns#"
   xmlns:rdf="http://www.w3.org/1999/02/22-rdf-syntax-ns#"
   xmlns:svg="http://www.w3.org/2000/svg"
   xmlns="http://www.w3.org/2000/svg"
   xmlns:sodipodi="http://sodipodi.sourceforge.net/DTD/sodipodi-0.dtd"
   xmlns:inkscape="http://www.inkscape.org/namespaces/inkscape"
   sodipodi:docname="linkedin_footer.svg"
   inkscape:version="1.0 (6e3e5246a0, 2020-05-07)"
   id="svg2530"
   version="1.1"
   viewBox="0 0 26.458333 26.458334"
   height="100"
   width="100">
  <defs
     id="defs2524" />
  <sodipodi:namedview
     units="px"
     inkscape:window-maximized="0"
     inkscape:window-y="0"
     inkscape:window-x="50"
     inkscape:window-height="1044"
     inkscape:window-width="1428"
     showgrid="false"
     inkscape:document-rotation="0"
     inkscape:current-layer="layer1"
     inkscape:document-units="mm"
     inkscape:cy="70.751675"
     inkscape:cx="135.3564"
     inkscape:zoom="1.979899"
     inkscape:pageshadow="2"
     inkscape:pageopacity="0.0"
     borderopacity="1.0"
     bordercolor="#666666"
     pagecolor="#ffffff"
     id="base" />
  <metadata
     id="metadata2527">
    <rdf:RDF>
      <cc:Work
         rdf:about="">
        <dc:format>image/svg+xml</dc:format>
        <dc:type
           rdf:resource="http://purl.org/dc/dcmitype/StillImage" />
        <dc:title></dc:title>
      </cc:Work>
    </rdf:RDF>
  </metadata>
  <g
     id="layer1"
     inkscape:groupmode="layer"
     inkscape:label="Layer 1">
    <g
       transform="matrix(1.2921949,0,0,1.2921949,-25.379564,-149.34977)"
       id="g38630-5-2"
       style="fill:#ffffff;fill-opacity:1;stroke:#000000;stroke-opacity:1">
      <path
         inkscape:connector-curvature="0"
         id="path38632-6-2"
         style="fill:none;fill-opacity:1;stroke:#FFF;stroke-width:0.708661;stroke-linecap:butt;stroke-linejoin:miter;stroke-miterlimit:4;stroke-dasharray:none;stroke-opacity:1"
         d="m 24.859,121.609 c 0,-0.625 0.348,-0.937 1.047,-0.937 0.707,0 1.063,0.312 1.063,0.937 0,0.305 -0.09,0.539 -0.266,0.703 -0.18,0.168 -0.445,0.25 -0.797,0.25 -0.699,0 -1.047,-0.316 -1.047,-0.953 z m 2.016,8.938 h -1.937 v -7.094 h 1.937 z" />
    </g>
    <g
       transform="matrix(1.2921949,0,0,1.2921949,-25.379564,-149.34977)"
       id="g38638-2-8"
       style="fill:#ffffff;fill-opacity:1;stroke:#000000;stroke-opacity:1">
      <path
         inkscape:connector-curvature="0"
         id="path38640-9-9"
         style="fill:none;fill-opacity:1;stroke:#FFF;stroke-width:0.708661;stroke-linecap:butt;stroke-linejoin:miter;stroke-miterlimit:4;stroke-dasharray:none;stroke-opacity:1"
         d="m 35.301,130.547 h -1.938 v -4.141 c 0,-0.508 -0.093,-0.894 -0.281,-1.156 -0.18,-0.258 -0.465,-0.391 -0.859,-0.391 -0.543,0 -0.934,0.184 -1.172,0.547 -0.242,0.367 -0.36,0.965 -0.36,1.797 v 3.344 h -1.937 v -7.094 h 1.484 l 0.25,0.906 h 0.11 c 0.218,-0.343 0.515,-0.601 0.89,-0.781 0.383,-0.176 0.817,-0.266 1.297,-0.266 0.82,0 1.445,0.227 1.875,0.672 0.426,0.45 0.641,1.094 0.641,1.938 z" />
    </g>
    <g
       transform="matrix(1.2921949,0,0,1.2921949,-25.379564,-149.34977)"
       id="g38642-1-7"
       style="stroke:#000000;stroke-opacity:1">
      <path
         inkscape:connector-curvature="0"
         id="path38644-2-3"
         style="fill:none;stroke:#FFF;stroke-width:0.829116;stroke-linecap:round;stroke-linejoin:round;stroke-miterlimit:4;stroke-dasharray:none;stroke-opacity:1"
         d="m 39.203,125.785 c 0,5.121 -4.152,9.274 -9.277,9.274 -5.121,0 -9.274,-4.153 -9.274,-9.274 0,-5.125 4.153,-9.277 9.274,-9.277 5.125,0 9.277,4.152 9.277,9.277 z" />
    </g>
  </g>
</svg>
